<svg xmlns="http://www.w3.org/2000/svg" viewBox="0 0 520.87 54.55"><defs><style>.cls-1{fill:#cb2026;}.cls-1,.cls-2{stroke:#231f20;}.cls-1,.cls-2,.cls-3{stroke-miterlimit:10;}.cls-2,.cls-3{fill:#f1f2f2;}.cls-3{stroke:#3c2415;}</style></defs><title>logo-samswebs.svg</title><g id="Layer_2" data-name="Layer 2"><g id="background"><rect class="cls-1" x="0.5" y="19.18" width="519.87" height="16.27"/><path class="cls-2" d="M7.94,21.46c.14-.7.23-1.27.28-1.72a2.14,2.14,0,0,0-.49-1.44c.18-.75.34-1.34.45-1.76a4.7,4.7,0,0,0,0-1.76,7.7,7.7,0,0,1,1.93-3.09A14,14,0,0,1,13,9.54a20.91,20.91,0,0,1,3.23-1.47c1.13-.4,2.18-.74,3.17-1a.25.25,0,0,0-.28-.28c-.19,0-.24-.12-.14-.35a51.85,51.85,0,0,0,7.62-2Q30.44,3,34.44,2A41.91,41.91,0,0,1,42.67.68a26.51,26.51,0,0,1,8.86,1.09,7.52,7.52,0,0,0,.77,1.62c.33.52.67,1,1,1.51s.67,1,1,1.44a3.57,3.57,0,0,1,.5,1.48,8,8,0,0,1,1.37,1.65,3.1,3.1,0,0,1,.17,2.36c-.51.38-1.05.75-1.62,1.12A20.33,20.33,0,0,1,52.94,14a20.6,20.6,0,0,0-6.33-.56q-3.16.21-5.7.49a2.29,2.29,0,0,0-1.82-.81,9.47,9.47,0,0,0-2.22.35l-2.28.63a5,5,0,0,1-2.11.18,4.12,4.12,0,0,1-2,1q-1.28.24-2.67.39a.43.43,0,0,0,.14.49c.14.09.16.28.07.56a2.49,2.49,0,0,0,1.33.88c.56.16,1.14.32,1.72.46a6.64,6.64,0,0,1,1.59.59,1.87,1.87,0,0,1,.91,1.23,4.48,4.48,0,0,1,2.18.67A6.1,6.1,0,0,1,37.26,22a5.77,5.77,0,0,1,.91,1.8,4.48,4.48,0,0,1,.21,1.72c.19.47.39.66.6.56s.46,0,.74.35A5.53,5.53,0,0,0,41,28.6a9.34,9.34,0,0,1,1.58,2.49c.09,1.41.18,2.68.25,3.8a7.08,7.08,0,0,1-.6,3.31,17.59,17.59,0,0,1-3.45,5.55,27.18,27.18,0,0,1-5.09,4.33,40,40,0,0,1-6,3.23,53.2,53.2,0,0,1-6.25,2.28,1.87,1.87,0,0,0-.67,0q-.39.07-.18-.42a2.88,2.88,0,0,1-1.44.71,9,9,0,0,1-1.76.1c-.63,0-1.26-.06-1.89-.1a7.76,7.76,0,0,0-1.87.07c-.37-.38-.71-.75-1-1.13a4.73,4.73,0,0,1-.74-1.33.37.37,0,0,1-.31-.46c0-.26-.08-.39-.32-.39a.94.94,0,0,1,.07-.42c0-.09.1-.19.14-.28.19-.14.27-.25.25-.32a.52.52,0,0,0-.21-.21,2.71,2.71,0,0,1-.35-.24.3.3,0,0,1-.11-.36,2.46,2.46,0,0,0,.25-1.51c-.07-.58-.13-1.18-.18-1.79a5.12,5.12,0,0,1,.14-1.72,2.28,2.28,0,0,1,1.2-1.37,17.52,17.52,0,0,0,5.45-.29,26.92,26.92,0,0,0,4.85-1.54,47.73,47.73,0,0,0,4.36-2.15q2.07-1.15,4-2.14a3,3,0,0,1,.67-1.2c.3-.32.62-.64.95-1a9.42,9.42,0,0,0,.91-1,3.58,3.58,0,0,0,.63-1.3.59.59,0,0,0,0-.42.56.56,0,0,0-.21-.25,3,3,0,0,1-.28-.25.57.57,0,0,1-.14-.42,3.54,3.54,0,0,1-.39-.14,1,1,0,0,0-.31-.07,26.47,26.47,0,0,0-3.87-1.55,18.68,18.68,0,0,1-3.44-1.4,1.88,1.88,0,0,1-1.69.28,20.27,20.27,0,0,0-2-.56,50,50,0,0,1-5.59-.57,21.58,21.58,0,0,1-5.1-1.47,3,3,0,0,0-.35-.74c-.14-.21-.47-.27-1-.18-.33-.46-.67-.9-1-1.3A6.65,6.65,0,0,1,7.94,21.46Z"/><path class="cls-2" d="M85.7,42.47a11.12,11.12,0,0,1-1.23,2.43,10.71,10.71,0,0,1-1.9,2.18,10.41,10.41,0,0,1-2.42,1.58,7.41,7.41,0,0,1-2.81.7,3.45,3.45,0,0,1-1.24-.46,7.66,7.66,0,0,0-.66-.45c-.14-.1-.27-.18-.39-.25L74.73,48l-.84-.35.28-.91a1.1,1.1,0,0,0-.07-.88,5.59,5.59,0,0,0-.84-.88l-.42-.42a2.69,2.69,0,0,1-.36-.42l-1.19-1.34,1.9-.49a4.44,4.44,0,0,0,2.35-1.27,3.84,3.84,0,0,0,.46-2.6,6,6,0,0,0-2.36-.07c-.63.14-1.27.31-1.93.49-.84.24-1.7.44-2.57.6a14.72,14.72,0,0,1-2.84.25c-.38,0-.73,0-1.06,0s-.68-.06-1-.1l-.71-.14c-.09-.52-.18-.81-.28-.88a2.1,2.1,0,0,1-.28-.25,5.94,5.94,0,0,1-.74-1A1.9,1.9,0,0,1,62,35.86a3.12,3.12,0,0,1-.42-1.27A7.59,7.59,0,0,0,61,36.35l-.28.71-.7.14a.42.42,0,0,0-.21.31,1.46,1.46,0,0,0-.07.39l-.35,1.19a2.15,2.15,0,0,1-.29.25,3,3,0,0,0-.28.25,11.84,11.84,0,0,1-.35,1.26q-.21.63-.42,1.2c-.24.61-.43,1.21-.6,1.79a4.87,4.87,0,0,0-.17,1.72l-.29.78a2.79,2.79,0,0,1-.77.66c-.28.17-.56.32-.84.46a1.25,1.25,0,0,1-.39.25l-.39.17-.21.78-.84.14c-.52.09-.88.16-1.09.21a4,4,0,0,1-.74.07L51,49q-.78-.63-1.2-1a7.16,7.16,0,0,0-1-.74,3.39,3.39,0,0,1-.7-1.26c-.05-.29-.1-.54-.15-.78a3.66,3.66,0,0,1-.17-.7.63.63,0,0,0-.18-.42l-.91-.85.77-.63.07-1.19c.94-2.4,1.94-4.69,3-6.9s2.15-4.45,3.27-6.75c.38-.74.74-1.5,1.09-2.25S55.58,24,56,23.27a1.45,1.45,0,0,1-.07-.49,1.81,1.81,0,0,1,.14-.63c.52-.8.94-1.51,1.27-2.15s.65-1.27,1-1.93.76-1.57,1.16-2.32A17.17,17.17,0,0,1,61,13.43l1.13-.49.49-.18a1.81,1.81,0,0,1,.63-.1l1.06.14a10.53,10.53,0,0,0,3.44-2.57,35.56,35.56,0,0,0,3-4l.7-1,.91.57a4,4,0,0,0,1,.38l1.33.39c.85.19,1.64.4,2.39.63A4.45,4.45,0,0,1,78.88,8.3,7.86,7.86,0,0,1,79.37,10a8.86,8.86,0,0,0,.22,1.12c.14.8.26,1.59.38,2.39s.2,1.69.25,2.67c.23.8.43,1.58.6,2.36s.31,1.56.45,2.35c.24,1.13.47,2.22.71,3.27a18.28,18.28,0,0,0,.91,3,2.24,2.24,0,0,1,.7.07,4.5,4.5,0,0,1,.74-.21l.88-.14.77-.07.29.7c0,.24.28.47.7.71a2.51,2.51,0,0,1,1.33.38,7.39,7.39,0,0,1,.78.67,1.91,1.91,0,0,0,.56.42l1,.42-.56,1.06a9.56,9.56,0,0,1-2,2.43,12.65,12.65,0,0,1-2.92,1.93c.05.28.08.55.11.81a3.67,3.67,0,0,0,.17.81c.14.79.26,1.61.35,2.46a11.3,11.3,0,0,1,0,2.6ZM65.38,30.31c1.41-.1,2.68-.2,3.83-.32s2.43-.32,3.84-.6C72.72,28,72.37,26.52,72,25s-.77-3-1.19-4.54l-.43.71a29.42,29.42,0,0,0-2.7,3.3,39.2,39.2,0,0,0-2.22,3.45l-.84,1.26c-.28.42-.54.84-.77,1.27a4.56,4.56,0,0,1,.8-.07A4.32,4.32,0,0,0,65.38,30.31Z"/><path class="cls-2" d="M139,47.32c-.47.24-.9.45-1.3.63a3.17,3.17,0,0,1-1.37.29q-2.75-2-2.85-7.11a45,45,0,0,1,2.14-12.86.91.91,0,0,0,.36-.85l-.64-.7a1.77,1.77,0,0,0-.52.07c-.17.05-.3.21-.39.49q-1.83,1.34-4,2.78a50.8,50.8,0,0,1-4.53,2.67,30.84,30.84,0,0,1-4.79,2,15.65,15.65,0,0,1-4.74.77q-5.91,0-8.86-6l-.56-1.05-.57.91a8.72,8.72,0,0,0-.63,1.16q-.42.89-.84,2c-.28.75-.53,1.51-.74,2.28a6.09,6.09,0,0,0-.25,2c-.42.43-.86.92-1.33,1.48a5.91,5.91,0,0,0-1.06,1.9,1.41,1.41,0,0,0,.14,1.05,1.56,1.56,0,0,1-.63,1c-.19.23-.39.46-.6.67a3.5,3.5,0,0,0-.52.66,2.32,2.32,0,0,0-.18.71,5.65,5.65,0,0,1-.11.7,2.77,2.77,0,0,1-.14.92,14.39,14.39,0,0,1-1.89,3.19,2.49,2.49,0,0,1-1.9.74,12.59,12.59,0,0,1-1.83-.21,9.39,9.39,0,0,1-1.65-2.71,17.64,17.64,0,0,1-1.13-3.69,18.86,18.86,0,0,1-.35-4,9.14,9.14,0,0,1,.67-3.48A14.12,14.12,0,0,1,92,34.38c.38-.89.85-2,1.44-3.44s1.26-3,2-4.68,1.5-3.37,2.25-5,1.46-3.1,2.14-4.46a31.19,31.19,0,0,1,1.72-3.1c.38-.56.72-1.09,1-1.58s.6-1,.88-1.44a29.34,29.34,0,0,1,2.43-3.62,7.71,7.71,0,0,1,3.41-2.29,5.71,5.71,0,0,1,2.25,1.48l.14.77c.18.47.47.71.84.71.52.14,1,.27,1.3.38a10.15,10.15,0,0,0,1.16.32,7.23,7.23,0,0,1,.92,1.33L117,11.43A9.21,9.21,0,0,1,117.8,13a5,5,0,0,1,.35,1.66,4.27,4.27,0,0,1-.31,1.75l.07.71a2.66,2.66,0,0,1,.14,1.76,6.58,6.58,0,0,0-.07,1,5,5,0,0,0,.14,1.16,3.83,3.83,0,0,0,2.25,1,4.2,4.2,0,0,0,2.07-.53c.63-.35,1.23-.71,1.79-1.09a10.39,10.39,0,0,1,1.13-.74,2.92,2.92,0,0,1,1.12-.38c.85-.8,1.61-1.5,2.29-2.11s1.39-1.22,2.14-1.83A48.13,48.13,0,0,0,135,11.74a14.65,14.65,0,0,0,3.17-4.92,2.81,2.81,0,0,1,1.47-.42,4.27,4.27,0,0,1,1.62.35l1.62.7a2.26,2.26,0,0,0,.38.22,2.37,2.37,0,0,1,.32.14A1.55,1.55,0,0,0,144.13,9a3.9,3.9,0,0,1,.35.28.7.7,0,0,0,.21.14A3,3,0,0,1,146,10.55,4.34,4.34,0,0,0,147.79,13a2.7,2.7,0,0,0,0,1.3,9.82,9.82,0,0,0,.46,1.23c.05.14.09.28.14.42a4.49,4.49,0,0,0,.21.49l-1.33-.14.21,1.34a5.58,5.58,0,0,1-.18,2.18,7.45,7.45,0,0,1-.74,1.9c0,1.22.08,2.17.11,2.85a9.52,9.52,0,0,1-.11,1.89,11.54,11.54,0,0,1-.38,1.66,15.81,15.81,0,0,1-.67,1.68,20.66,20.66,0,0,1-1,8.19q-1.31,3.7-2.71,6.93c-.09.24-.2.47-.31.7a7.4,7.4,0,0,0-.32.71,9.49,9.49,0,0,0-1.13.45Z"/><path class="cls-2" d="M150.11,16.79a6.11,6.11,0,0,1,1.58-2.53,11.89,11.89,0,0,1,2.39-1.8,16.94,16.94,0,0,1,2.71-1.23q1.41-.48,2.67-.84c1.87-.8,3.88-1.56,6-2.28s4.31-1.38,6.54-1.94a39.88,39.88,0,0,1,6.86-1.09,21.18,21.18,0,0,1,7.38.88,5.11,5.11,0,0,0,.63,1.34c.28.42.58.84.88,1.26s.57.84.81,1.23A3.22,3.22,0,0,1,189,11a5.72,5.72,0,0,1,1.13,1.37,2.69,2.69,0,0,1,.14,1.94c-.47.37-.93.71-1.37,1a10.64,10.64,0,0,1-1.45.81,16.39,16.39,0,0,0-5.27-.43l-4.78.36a2,2,0,0,0-1.51-.64,6.67,6.67,0,0,0-1.83.28l-1.9.57a4.12,4.12,0,0,1-1.79.14,3.84,3.84,0,0,1-1.72.74c-.68.11-1.42.22-2.22.31,0,.24,0,.39.14.46s.17.22.07.46a2.39,2.39,0,0,0,1.09.7l1.41.42a6.19,6.19,0,0,1,1.3.53,1.66,1.66,0,0,1,.77,1,3.32,3.32,0,0,1,1.83.49,4.42,4.42,0,0,1,1.27,1.2,5.28,5.28,0,0,1,.73,1.51,4.84,4.84,0,0,1,.25,1.44c.14.37.31.54.49.49a.74.74,0,0,1,.64.28,4.4,4.4,0,0,0,1.05,1.87,7.9,7.9,0,0,1,1.34,2.07c.09,1.17.16,2.21.21,3.13a6.73,6.73,0,0,1-.49,2.78A15.64,15.64,0,0,1,175.6,41a23.71,23.71,0,0,1-4.22,3.62,29.24,29.24,0,0,1-5,2.7,50.11,50.11,0,0,1-5.2,1.9,1.32,1.32,0,0,0-.56,0c-.19,0-.24-.07-.15-.35a2.59,2.59,0,0,1-1.23.63,5.55,5.55,0,0,1-1.44.11c-.51,0-1-.06-1.58-.11a5.74,5.74,0,0,0-1.51.07c-.33-.32-.62-.64-.88-.94a3.27,3.27,0,0,1-.6-1.16c-.23,0-.34-.12-.31-.36s-.06-.35-.25-.35a2.34,2.34,0,0,0,.39-.81.38.38,0,0,0-.21-.17,1.4,1.4,0,0,1-.32-.18.24.24,0,0,1-.07-.31,2.34,2.34,0,0,0,.21-1.31c0-.49-.09-1-.14-1.51a4.49,4.49,0,0,1,.1-1.47,1.78,1.78,0,0,1,1-1.13,14,14,0,0,0,4.54-.17,20.11,20.11,0,0,0,4-1.31c1.27-.56,2.47-1.17,3.62-1.82s2.29-1.24,3.41-1.76a3,3,0,0,1,.6-1.06,9.74,9.74,0,0,1,.81-.77,5.6,5.6,0,0,0,.77-.77,2.49,2.49,0,0,0,.5-1.06c0-.32,0-.52-.25-.59a.5.5,0,0,1-.32-.53l-.77-.21a14.61,14.61,0,0,0-3-1.3,18,18,0,0,1-2.89-1.16,1.8,1.8,0,0,1-1.44.21c-.44-.14-1-.28-1.72-.43a44.58,44.58,0,0,1-4.61-.49,16.63,16.63,0,0,1-4.25-1.26,2.63,2.63,0,0,0-.35-.64c-.14-.18-.4-.23-.77-.14l-.85-1.09a7.54,7.54,0,0,1-.77-1.16q.14-.84.21-1.44a1.53,1.53,0,0,0-.42-1.16q.27-.91.42-1.47A4,4,0,0,0,150.11,16.79Z"/><path class="cls-2" d="M317.18,48.34c-.24-.51-.47-1-.71-1.48s-.47-.89-.7-1.26c-.56-1.13-1-2.13-1.48-3a25,25,0,0,1-1.19-3.1c.14-.79.38-2.13.74-4s.76-3.92,1.23-6.15,1-4.49,1.51-6.78,1.09-4.27,1.65-5.91Q319,14.46,320,12a37.44,37.44,0,0,1,2.11-4.54,20,20,0,0,1,2.5-3.55,5.13,5.13,0,0,1,2.88-1.75,3.57,3.57,0,0,0,.92.87,3.54,3.54,0,0,0,.91.46,23.82,23.82,0,0,0,2.32,2.85,20.08,20.08,0,0,0,2.67,2.28A44.45,44.45,0,0,1,333,13.29q-.81,2.57-1.69,5.17c-.58,1.73-1.16,3.41-1.72,5s-1,3-1.33,4.18c-.29.94-.57,2-.85,3.23-.23,1-.48,2.28-.74,3.73s-.5,3-.73,4.78a8.05,8.05,0,0,0,2.21-1.12,28.17,28.17,0,0,0,2.29-1.76q1.26-1.05,2.46-2.25c1.07-1.08,2-2.06,2.74-3a29,29,0,0,0,2.07-2.78c.64-1,1.29-2,2-3.17s1.49-2.52,2.43-4.11q1.26-2,2.63-4.36c.92-1.55,1.84-3,2.78-4.43s1.85-2.71,2.74-3.9a18,18,0,0,1,2.46-2.78q.78.78,1.8,1.62a6.11,6.11,0,0,0,2.21,1.19c.33.52.65,1,.95,1.38s.6.78.88,1.16.71,1,1,1.4a8.67,8.67,0,0,1,.81,1.41c-.05.37-.13.87-.25,1.47s-.24,1.28-.38,2-.3,1.46-.46,2.21-.32,1.48-.46,2.18c-.47,2.11-.82,3.71-1.05,4.78s-.4,1.93-.5,2.54-.15,1.12-.17,1.54,0,1,0,1.76a10.7,10.7,0,0,0,.14,1.69c.1.51.2,1,.32,1.58a4.17,4.17,0,0,0,.67,1.51l3.37-2.6a12.14,12.14,0,0,0,2.71-3,37.38,37.38,0,0,0,2.53-4.43c.82-1.66,1.63-3.47,2.43-5.41s1.59-3.95,2.39-6q.84-2.25,1.72-4.47c.59-1.48,1.18-2.88,1.79-4.22s1.21-2.55,1.8-3.65A21.24,21.24,0,0,1,378.7.67,26.44,26.44,0,0,1,382,3.06a15.26,15.26,0,0,1,2.39,2.64A12.08,12.08,0,0,1,386,9a23.55,23.55,0,0,1,.88,4.4c-1,2-2,4-2.89,6s-1.78,4.15-2.67,6.26q-1.68,4.08-3.48,8.12a71.49,71.49,0,0,1-4,7.7A45.21,45.21,0,0,1,369,48.24a26.4,26.4,0,0,1-6.22,5.16,8.32,8.32,0,0,0-1.69-.21,3.5,3.5,0,0,0-1.3.21,3.38,3.38,0,0,0-.95.57,11.06,11.06,0,0,1-4.64-4,61.58,61.58,0,0,1-3.44-5.87c-.15-.33-.3-.64-.46-.95s-.34-.62-.53-1L348.54,40l-.71-1.33-1,.91L345.37,41l-.84.84c-1.46,1.36-2.93,2.69-4.43,4a41.8,41.8,0,0,1-4.71,3.52,25.73,25.73,0,0,1-5.24,2.57,18.89,18.89,0,0,1-5.94,1l-1-.49-.88-.42a22,22,0,0,1-2.67-1.48A14.65,14.65,0,0,1,317.18,48.34Z"/><path class="cls-2" d="M422.5,8.75a2.92,2.92,0,0,1,0,.74c0,.16-.05.31-.07.45a2.25,2.25,0,0,0,0,.46,3.14,3.14,0,0,0,.14.74,8.08,8.08,0,0,1-3.41,3.27A16.52,16.52,0,0,1,415,15.67l-4.6.81a13.56,13.56,0,0,0-4.68,1.83,2.05,2.05,0,0,0-1.65,0,4.07,4.07,0,0,1-2.15.21,2.38,2.38,0,0,1-1,.6c-.42.12-.85.25-1.27.39a2.8,2.8,0,0,1,.25,1.3A2.13,2.13,0,0,0,400,21.9a31.37,31.37,0,0,0,5.45-.07c2-.19,3.95-.31,5.87-.36.05.24,0,.39-.07.46s-.11.2-.07.39a6.52,6.52,0,0,1,1,.88c.33.35.65.69,1,1a5.75,5.75,0,0,0,1,.81,1.93,1.93,0,0,0,1.23.24,4.21,4.21,0,0,1,.39,1.23,2.53,2.53,0,0,1-.18,1.37q-1.12.78-2.25,1.59A20.8,20.8,0,0,1,411,30.9a14.33,14.33,0,0,1-2.6,1,9.94,9.94,0,0,1-3.06.31h-.53a.86.86,0,0,1-.46-.21,2.28,2.28,0,0,1-1.58.21,2.4,2.4,0,0,0-1.58.21,4.14,4.14,0,0,0-1.86-.31,5.6,5.6,0,0,1-1.94-.25,25.1,25.1,0,0,0-2,3.16,27.18,27.18,0,0,0-1.61,3.59,20.78,20.78,0,0,0,4,.28c1,0,2-.13,3-.24l2.88-.36a26.44,26.44,0,0,1,3.73-.1,9.11,9.11,0,0,1,3.34-1,17,17,0,0,0,3.55-.81,2.31,2.31,0,0,1,1,.74c.28.35.55.68.81,1a6.19,6.19,0,0,0,.81.81,1.3,1.3,0,0,0,1.05.28,1.47,1.47,0,0,1,.39.67c.07.26.13.51.18.74a1.46,1.46,0,0,0,.24.6.57.57,0,0,0,.6.17,10.43,10.43,0,0,1-2.43,3.55,9.34,9.34,0,0,1-3.12,1.87,22.12,22.12,0,0,1-3.91,1c-1.43.24-3,.52-4.74.85a1.76,1.76,0,0,1-1.06,0,2.48,2.48,0,0,0-1-.18c-1.08.24-2.37.45-3.87.64a31.46,31.46,0,0,1-4.57.21,21.13,21.13,0,0,1-4.43-.6,7.14,7.14,0,0,1-3.44-1.86,2.25,2.25,0,0,1-.74-1.16,1.57,1.57,0,0,0-1-1,20.11,20.11,0,0,0-.28-2c-.14-.75-.28-1.54-.43-2.36s-.24-1.63-.31-2.42a7.35,7.35,0,0,1,.1-2.18,4.42,4.42,0,0,1,.88-1.9,2.1,2.1,0,0,0,.46-1.83.49.49,0,0,0,.42-.39c.05-.21.24-.29.56-.24.29-.85.59-1.64.92-2.39s.67-1.48,1-2.18.7-1.42,1.05-2.15.69-1.53,1-2.42a5.68,5.68,0,0,1-1.44-2,10.51,10.51,0,0,1-.67-2.18c-.14-.72-.26-1.47-.35-2.25a14.69,14.69,0,0,0-.49-2.35,6,6,0,0,1,1.72-1.72,10,10,0,0,1,2.22-1.09A17.81,17.81,0,0,1,394,9.8c.94-.18,1.92-.39,3-.63q2.81-.91,5-1.41c1.47-.32,2.93-.59,4.36-.8s2.92-.41,4.46-.6,3.31-.47,5.28-.85a1.75,1.75,0,0,0,1.19.64c.19-.43.41-.55.67-.39s.36,0,.32-.39a6.52,6.52,0,0,0,1.79,2A11.6,11.6,0,0,0,422.5,8.75Z"/><path class="cls-2" d="M459.42,36.84a.91.91,0,0,1,.49.71,2,2,0,0,1,0,.77l-1.76,2.25c-.33.42-.56.74-.7,1a2.41,2.41,0,0,1-.46.53L455.9,43a59.86,59.86,0,0,1-6.5,3.38,28,28,0,0,1-7,2,3.43,3.43,0,0,1-2.14,1.09l-2.92.59a.52.52,0,0,1-.32-.38.5.5,0,0,0-.31-.39c0,.47-.26.71-.64.74a3.4,3.4,0,0,1-1.37-.28A11.06,11.06,0,0,1,433,48.9c-.59-.35-1.09-.66-1.52-.95-.23.38-.48.75-.73,1.13a2.05,2.05,0,0,1-.95.77l-1.16-.21a.81.81,0,0,0-.74.28,2.08,2.08,0,0,1-.67-.49c-.16-.19-.33-.36-.49-.53a4.24,4.24,0,0,0-.56-.45,3.2,3.2,0,0,0-.88-.36,1.11,1.11,0,0,0-.14-.87,1.25,1.25,0,0,0-.85-.74q.29-.49-.24-1.23a5.45,5.45,0,0,1-.81-1.66q.14-.77.21-1.68a1,1,0,0,1,.84-1.06,3.13,3.13,0,0,0-.21-.84c-.09-.24-.19-.47-.28-.7a2.37,2.37,0,0,0,.7-1,10.19,10.19,0,0,0,.35-1.23c.1-.43.22-.85.36-1.27a2.1,2.1,0,0,1,.77-1c.42-1.41.75-2.45,1-3.13a13,13,0,0,0,.53-2c.12-.65.26-1.36.42-2.11a22.86,22.86,0,0,1,.88-2.81,5,5,0,0,1,.21-1.86q.29-.81.6-1.62a12.8,12.8,0,0,0,.53-1.69,4.6,4.6,0,0,0-.07-2.07,1.77,1.77,0,0,0-1.41.67,3.55,3.55,0,0,0-.56,1.58,1.79,1.79,0,0,1-1.37.53,3.86,3.86,0,0,0-1.44.17,10.54,10.54,0,0,1-4.08-2.81,14.43,14.43,0,0,1-2.6-4.29,6.71,6.71,0,0,1,1.9-2.71,12.4,12.4,0,0,1,2.88-1.83,20.49,20.49,0,0,1,3.44-1.19l3.52-.88q2.75-.5,5.48-1.12a20,20,0,0,1,5.91-.43,2.55,2.55,0,0,1,1-.24c.4,0,.81,0,1.23,0s.83,0,1.23,0a2.73,2.73,0,0,0,1-.25,1.58,1.58,0,0,0,1,.53,3.42,3.42,0,0,1,1.44.67c.56-.43,1-.52,1.44-.28a7.32,7.32,0,0,1,1.09.77c.33.28.65.54.95.77a1.51,1.51,0,0,0,1,.35,6.69,6.69,0,0,0,1.23,1.2c.49.38,1,.76,1.41,1.16a6.49,6.49,0,0,1,1.12,1.3,2.87,2.87,0,0,1,.46,1.62q-.08.35.21.42a.67.67,0,0,1,.42.28,8,8,0,0,1-.67,3.76A13.89,13.89,0,0,1,455.52,20a25.86,25.86,0,0,1-2.39,2.53,21.52,21.52,0,0,0-2.36,2.53,8.87,8.87,0,0,0,1.62,1.62l1.86,1.41c.63.47,1.23,1,1.79,1.47a6.88,6.88,0,0,1,1.41,1.83,1.16,1.16,0,0,0,.35.25l.42.24a9.35,9.35,0,0,0,.57,1.44c.23.5.43,1,.59,1.41a5.53,5.53,0,0,1,.32,1.2A1,1,0,0,1,459.42,36.84ZM447,13.36a28.56,28.56,0,0,0-7.13.63A20.44,20.44,0,0,0,434,16.17a21.5,21.5,0,0,0,2.42,1.76A5.39,5.39,0,0,1,438.32,20a19.07,19.07,0,0,0,4.86-2.85A28.5,28.5,0,0,0,447,13.36ZM448,35.79a2.07,2.07,0,0,1,.77-1.12c.38-.29.75-.56,1.13-.81a5.81,5.81,0,0,0,1-.85,1.62,1.62,0,0,0,.35-1.3,12.68,12.68,0,0,0-4.11-1.44,13,13,0,0,0-3.52,0,19.94,19.94,0,0,0-3.16.74,17.35,17.35,0,0,1-3.06.7c-.52,1.36-1,2.84-1.62,4.43s-1.1,3.14-1.61,4.64A19.7,19.7,0,0,0,438,39.9c1.17-.39,2.31-.83,3.41-1.3s2.18-1,3.24-1.44S446.79,36.21,448,35.79Z"/><path class="cls-2" d="M461,16.79a6,6,0,0,1,1.58-2.53,11.61,11.61,0,0,1,2.39-1.8,16.94,16.94,0,0,1,2.71-1.23q1.39-.48,2.67-.84,2.81-1.2,6-2.28t6.54-1.94a39.77,39.77,0,0,1,6.85-1.09,21.21,21.21,0,0,1,7.39.88,5.11,5.11,0,0,0,.63,1.34c.28.42.57.84.88,1.26s.57.84.81,1.23a3.22,3.22,0,0,1,.42,1.23A5.67,5.67,0,0,1,501,12.39a2.64,2.64,0,0,1,.14,1.94c-.46.37-.92.71-1.37,1a10,10,0,0,1-1.44.81,16.39,16.39,0,0,0-5.27-.43l-4.78.36a2.06,2.06,0,0,0-1.52-.64,6.66,6.66,0,0,0-1.82.28l-1.9.57a4.12,4.12,0,0,1-1.79.14,3.83,3.83,0,0,1-1.73.74c-.68.11-1.42.22-2.21.31-.05.24,0,.39.14.46s.16.22.07.46a2.34,2.34,0,0,0,1.09.7l1.4.42a6.07,6.07,0,0,1,1.31.53,1.66,1.66,0,0,1,.77,1,3.34,3.34,0,0,1,1.83.49,4.52,4.52,0,0,1,1.26,1.2,5.05,5.05,0,0,1,.74,1.51,4.84,4.84,0,0,1,.25,1.44c.14.37.3.54.49.49a.72.72,0,0,1,.63.28,4.33,4.33,0,0,0,1.06,1.87,7.86,7.86,0,0,1,1.33,2.07c.1,1.17.17,2.21.21,3.13a6.42,6.42,0,0,1-.49,2.78A15.44,15.44,0,0,1,486.52,41a23,23,0,0,1-4.22,3.62,29.14,29.14,0,0,1-5,2.7,50.26,50.26,0,0,1-5.21,1.9,1.32,1.32,0,0,0-.56,0c-.19,0-.23-.07-.14-.35a2.59,2.59,0,0,1-1.23.63,5.58,5.58,0,0,1-1.44.11c-.52,0-1-.06-1.58-.11a5.72,5.72,0,0,0-1.51.07,12.34,12.34,0,0,1-.88-.94,3.27,3.27,0,0,1-.6-1.16c-.24,0-.34-.12-.32-.36s-.06-.35-.24-.35c.28-.47.41-.74.38-.81s-.09-.12-.21-.17a1.57,1.57,0,0,1-.31-.18.24.24,0,0,1-.07-.31,2.52,2.52,0,0,0,.21-1.31c-.05-.49-.1-1-.14-1.51a4.23,4.23,0,0,1,.1-1.47,1.78,1.78,0,0,1,1-1.13,14,14,0,0,0,4.54-.17,20.32,20.32,0,0,0,4-1.31c1.26-.56,2.47-1.17,3.62-1.82s2.29-1.24,3.41-1.76a3,3,0,0,1,.6-1.06,8.39,8.39,0,0,1,.81-.77,6.22,6.22,0,0,0,.77-.77,2.48,2.48,0,0,0,.49-1.06c.05-.32,0-.52-.24-.59a.5.5,0,0,1-.32-.53l-.77-.21a14.47,14.47,0,0,0-3-1.3,18.29,18.29,0,0,1-2.88-1.16,1.81,1.81,0,0,1-1.44.21c-.45-.14-1-.28-1.72-.43a44.28,44.28,0,0,1-4.61-.49,16.51,16.51,0,0,1-4.25-1.26,3,3,0,0,0-.35-.64c-.15-.18-.4-.23-.78-.14l-.84-1.09a8.38,8.38,0,0,1-.78-1.16c.1-.56.17-1,.22-1.44a1.5,1.5,0,0,0-.43-1.16c.19-.61.33-1.1.43-1.47A4,4,0,0,0,461,16.79Z"/><path class="cls-3" d="M235,11.71c.52.37.91.64,1.17.8l.64.38a3,3,0,0,1,.5.35c.16.13.43.34.81.62a3.25,3.25,0,0,0-.34,1.2,6.94,6.94,0,0,0,.08.81c0,.25.12.52.19.8a3.57,3.57,0,0,1,0,1.13,70,70,0,0,1-6.81,4q-3,1.47-5.74,2.56t-5.74,2.07q-3,1-6.9,2.57a17.19,17.19,0,0,0,4.2,1.68c1.72.47,3.43,1,5.15,1.63a22.39,22.39,0,0,1,4.71,2.3,6.78,6.78,0,0,1,2.85,3.62,2.3,2.3,0,0,1,1.73,1.11,3.55,3.55,0,0,1,.63,2.45,8.37,8.37,0,0,0-1.29,1,4.08,4.08,0,0,1-1.5.82,5.14,5.14,0,0,1-2-.12,24,24,0,0,1-2.68-.74l-3-1c-1.06-.36-2.06-.66-3-.88s-2-.42-3.07-.6a14.54,14.54,0,0,1-3.07-.81,4.43,4.43,0,0,1-1.09-.65,2.5,2.5,0,0,0-1.1-.52,12.47,12.47,0,0,1-2.72-.78c-1-.38-1.94-.81-2.93-1.26l-2.93-1.38c-1-.45-1.87-.87-2.72-1.23q.06-.42-.93-1a4.42,4.42,0,0,0-2.11-.68,2.1,2.1,0,0,0-.69-1.5,4.65,4.65,0,0,1-1-1.5,3.63,3.63,0,0,1,.52-3.73,5.76,5.76,0,0,1,4-2.16,3.53,3.53,0,0,0,1.3.23,2.81,2.81,0,0,1,1.24.31,20,20,0,0,1,3-1.69,5.56,5.56,0,0,1,3.47-.5.81.81,0,0,1,.8-.57.7.7,0,0,0,.73-.64A29.7,29.7,0,0,0,215,18.48q2.73-1.08,5.32-2.34t5-2.52q2.4-1.26,4.65-2.27a2.85,2.85,0,0,0,1.83-.06,4.12,4.12,0,0,1,1.75-.26c-.14.14-.16.24-.07.28a1.29,1.29,0,0,0,.43.1l.59.06A.93.93,0,0,1,235,11.71Z"/><path class="cls-3" d="M259.12,13.11a13,13,0,0,0,2.71-3q1.46-2.1,3.08-4.15a29.16,29.16,0,0,1,3.34-3.59A4.42,4.42,0,0,1,271.71,1,13.32,13.32,0,0,1,273,6a28.71,28.71,0,0,1-.43,5.67q-.63.78-1.8,2.13c-.79.9-1.66,1.9-2.61,3l-2.95,3.44q-1.53,1.77-2.88,3.41c-.9,1.09-1.69,2.08-2.35,3a12.29,12.29,0,0,0-1.35,2.12c-.65.71-1.52,1.71-2.61,3s-2.2,2.63-3.36,4.05-2.28,2.8-3.36,4.15-2,2.48-2.67,3.37a.65.65,0,0,0,.22.63,2,2,0,0,1,.42.63,2.77,2.77,0,0,0-.89,1.31,3.62,3.62,0,0,0-.06,1.23,9.88,9.88,0,0,0,.22,1.23,3.94,3.94,0,0,1,.09,1.3,3.79,3.79,0,0,0-.8,1c-.2.38-.41.75-.62,1.1a6.07,6.07,0,0,1-.76,1,4.12,4.12,0,0,1-1.15.86,16.77,16.77,0,0,1-2.4-.36c-.61-.16-1.34-.3-2.18-.44a4.79,4.79,0,0,1-1.64-2.4,9.2,9.2,0,0,1-.42-3,16.4,16.4,0,0,1,.31-3c.2-1,.42-1.89.64-2.64.51-.34.53-.57.06-.71a3.66,3.66,0,0,1,1-1.66,1.84,1.84,0,0,0,.69-1.17,20.23,20.23,0,0,1,1.87-2.37c.93-1.07,1.93-2.22,3-3.45l3.16-3.59c1-1.16,1.8-2.07,2.36-2.73a11,11,0,0,1,1.9-2.94q1.48-1.82,3.12-3.73t3-3.62A5.43,5.43,0,0,0,259.12,13.11Z"/><path class="cls-3" d="M307.27,22.79a2.09,2.09,0,0,0,.68,1.5,4.61,4.61,0,0,1,1,1.5,3.4,3.4,0,0,1,.27,2,3.75,3.75,0,0,1-.79,1.77,5.55,5.55,0,0,1-1.64,1.35,7.18,7.18,0,0,1-2.34.8,2.77,2.77,0,0,0-1.31-.27,2.2,2.2,0,0,1-1.23-.26,21.48,21.48,0,0,1-3,1.68,5.53,5.53,0,0,1-3.48.5.78.78,0,0,1-.8.57.71.71,0,0,0-.73.64,29.7,29.7,0,0,0-5.61,1.61q-2.73,1.1-5.31,2.35c-1.73.84-3.39,1.69-5,2.55s-3.16,1.61-4.65,2.23a2.84,2.84,0,0,0-1.83.06,4,4,0,0,1-1.76.27c.14-.15.17-.24.07-.29a1.84,1.84,0,0,0-.42-.1l-.6-.06a.84.84,0,0,1-.53-.24c-.52-.32-.91-.58-1.17-.76s-.47-.32-.64-.42a5.09,5.09,0,0,1-.53-.34q-.29-.21-.78-.63a4.2,4.2,0,0,0,.31-1.16,3.28,3.28,0,0,0-.05-.84q-.07-.39-.18-.81a3.24,3.24,0,0,1-.05-1.12,71.51,71.51,0,0,1,6.77-4c2-1,3.87-1.84,5.74-2.56s3.79-1.42,5.78-2.07,4.28-1.52,6.9-2.58A21.65,21.65,0,0,0,286.15,24c-1.71-.49-3.43-1.05-5.15-1.66a22.81,22.81,0,0,1-4.7-2.3,6.71,6.71,0,0,1-2.85-3.63,2.33,2.33,0,0,1-1.74-1.1,3.57,3.57,0,0,1-.63-2.46,8.31,8.31,0,0,0,1.29-1,4.14,4.14,0,0,1,1.51-.83,5.1,5.1,0,0,1,2,.12c.82.18,1.72.43,2.68.74l3,1a29.56,29.56,0,0,0,3,.88q1.41.35,3.06.6a15.67,15.67,0,0,1,3.07.81,4.4,4.4,0,0,1,1.1.66,2.5,2.5,0,0,0,1.09.51,12.32,12.32,0,0,1,2.72.78c1,.39,1.94.81,2.93,1.27s2,.93,2.94,1.41a28.86,28.86,0,0,0,2.72,1.2c-.05.28.26.63.92,1A4.42,4.42,0,0,0,307.27,22.79Z"/></g></g></svg>